<?xml version="1.0" encoding="UTF-8" standalone="no"?>
<!-- Created with Inkscape (http://www.inkscape.org/) -->

<svg
   xmlns:dc="http://purl.org/dc/elements/1.1/"
   xmlns:cc="http://creativecommons.org/ns#"
   xmlns:rdf="http://www.w3.org/1999/02/22-rdf-syntax-ns#"
   xmlns:svg="http://www.w3.org/2000/svg"
   xmlns="http://www.w3.org/2000/svg"
   xmlns:sodipodi="http://sodipodi.sourceforge.net/DTD/sodipodi-0.dtd"
   xmlns:inkscape="http://www.inkscape.org/namespaces/inkscape"
   width="64px"
   height="64px"
   id="svg2985"
   version="1.1"
   inkscape:version="0.48.4 r9939"
   sodipodi:docname="wswg2.svg">
  <defs
     id="defs2987" />
  <sodipodi:namedview
     id="base"
     pagecolor="#ffffff"
     bordercolor="#666666"
     borderopacity="1.0"
     inkscape:pageopacity="0.0"
     inkscape:pageshadow="2"
     inkscape:zoom="5.5"
     inkscape:cx="-10.181818"
     inkscape:cy="24.727273"
     inkscape:current-layer="layer1"
     showgrid="true"
     inkscape:document-units="px"
     inkscape:grid-bbox="true"
     inkscape:window-width="1366"
     inkscape:window-height="744"
     inkscape:window-x="0"
     inkscape:window-y="24"
     inkscape:window-maximized="1" />
  <metadata
     id="metadata2990">
    <rdf:RDF>
      <cc:Work
         rdf:about="">
        <dc:format>image/svg+xml</dc:format>
        <dc:type
           rdf:resource="http://purl.org/dc/dcmitype/StillImage" />
        <dc:title></dc:title>
      </cc:Work>
    </rdf:RDF>
  </metadata>
  <g
     id="layer1"
     inkscape:label="Layer 1"
     inkscape:groupmode="layer">
    <path
       sodipodi:type="arc"
       style="fill:#34495e;fill-opacity:1"
       id="path3757"
       sodipodi:cx="33"
       sodipodi:cy="37.81818"
       sodipodi:rx="31.90909"
       sodipodi:ry="26.545454"
       d="m 64.90909,37.81818 a 31.90909,26.545454 0 1 1 -63.81818,0 31.90909,26.545454 0 1 1 63.81818,0 z"
       transform="matrix(1,0,0,1.2123288,-0.90909092,-13.848069)" />
    <g
       id="g3624"
       transform="matrix(0.40126311,0,0,0.24544821,38.961643,9.9321845)"
       style="fill:#ffffff;fill-opacity:1">
      <path
         id="path3614"
         d="m 26.47,95.631 c -0.021,2.55 2.024,4.625 4.568,4.646 2.548,0.021 4.624,-2.021 4.645,-4.567 L 36.44,5.307 C 36.477,0.837 33.571,0.336 31.537,0.32 29.495,0.303 25.72,6.033 24.864,11.32 24,16.602 18.891,43.844 26.988,49.207 l -0.518,46.424 0,0 0,0 z"
         inkscape:connector-curvature="0"
         style="fill:#ffffff;fill-opacity:1" />
      <path
         id="path3616"
         d="M 4.888,95.452 5.506,37.22 C 2.192,37.193 0.562,33.246 0,30.39 L 2.006,0.278 4.72,24.584 7.263,0.32 9.974,24.628 13.098,0.369 l 2.131,24.303 3.12,-24.259 1.497,30.143 c -0.602,2.846 -2.064,6.766 -5.386,6.739 l -0.353,58.233 c -0.021,2.548 -2.106,4.59 -4.649,4.568 C 6.914,100.075 4.868,98 4.888,95.452 l 0,0 0,0 z"
         inkscape:connector-curvature="0"
         style="fill:#ffffff;fill-opacity:1" />
    </g>
    <g
       id="g3704"
       transform="matrix(0.46538406,0,0,0.45165802,3.5490577,8.0065906)"
       style="fill:#ffffff;fill-opacity:1">
      <path
         id="path3686"
         d="M 99.689,97.089 86.3,62.412 c -0.198,-0.514 -0.601,-0.923 -1.11,-1.13 L 65.264,53.169 c -0.453,-0.185 -0.957,-0.196 -1.418,-0.035 l -0.729,0.257 C 69.034,44.175 75.78,31.726 75.78,22.843 75.779,10.247 65.514,0 52.891,0 40.269,0 30.001,10.247 30.001,22.842 c 0,10.884 10.205,27.113 16.58,36.192 L 27.209,52.489 C 26.48,52.243 25.668,52.437 25.131,52.991 L 0.74,78.125 c -0.429,0.441 -0.63,1.057 -0.544,1.664 0.085,0.609 0.446,1.146 0.979,1.452 l 31.693,18.276 c 10e-4,0 0.002,0 0.003,0 l 0.028,0.018 c 0.021,0.012 0.044,0.017 0.065,0.025 0.088,0.047 0.175,0.094 0.271,0.129 0.025,0.009 0.052,0.012 0.077,0.02 0.035,0.012 0.07,0.02 0.106,0.027 0.121,0.031 0.242,0.05 0.363,0.058 0.024,0.001 0.049,0.006 0.073,0.006 0.015,0 0.029,0.005 0.044,0.005 0.04,0 0.078,-0.017 0.118,-0.02 0.136,-0.008 0.27,-0.026 0.403,-0.062 0.065,-0.018 0.126,-0.041 0.189,-0.064 0.058,-0.022 0.119,-0.033 0.176,-0.062 L 62.551,85.896 c 0.186,0.065 0.381,0.113 0.588,0.121 0.026,0.002 0.053,0.002 0.077,0.002 0.156,0 0.308,-0.022 0.453,-0.058 l 33.392,13.692 c 0.244,0.102 0.504,0.149 0.76,0.149 0.513,0 1.018,-0.196 1.397,-0.569 0.575,-0.557 0.759,-1.4 0.471,-2.144 z M 48.098,43.14 c 0,-2.719 2.25,-5.016 4.919,-5.016 2.726,0 5.026,2.297 5.026,5.016 0,2.664 -2.302,4.914 -5.026,4.914 -2.669,0 -4.919,-2.25 -4.919,-4.914 z M 43.381,16.387 c -0.418,-0.367 -0.366,-0.992 0,-1.358 0,0 3.877,-4.6 10.633,-4.6 5.547,0 10.682,3.868 10.682,9.145 0,6.895 -7.854,7.104 -7.854,12.748 0,0.576 -0.473,0.994 -0.997,0.994 h -5.602 c -0.525,0 -0.993,-0.417 -0.993,-0.994 V 30.13 c 0,-4.393 7.228,-6.324 7.228,-9.667 0,-1.622 -1.678,-3.084 -3.929,-3.084 -3.666,0 -4.66,3.294 -5.97,2.144 L 43.381,16.387 z M 32.453,81.23 c 1.305,0.482 2.669,0.838 4.055,1.051 0.052,0.008 0.103,0.012 0.153,0.012 0.272,0 0.519,-0.118 0.702,-0.304 L 32.815,94.876 5.396,79.064 17.757,66.326 c 0.289,0.646 0.694,1.494 1.24,2.48 0.183,0.33 0.523,0.516 0.876,0.516 0.163,0 0.329,-0.04 0.482,-0.124 0.483,-0.267 0.659,-0.874 0.392,-1.356 -0.771,-1.395 -1.253,-2.509 -1.48,-3.07 l 7.856,-8.097 17.13,5.788 -6.616,18.748 c -0.039,-0.447 -0.36,-0.831 -0.825,-0.902 -1.252,-0.191 -2.484,-0.513 -3.664,-0.949 -0.515,-0.19 -1.093,0.072 -1.285,0.59 -0.192,0.515 0.072,1.089 0.59,1.28 z m 29.35,-12.589 c -0.378,0.321 -0.478,0.873 -0.195,1.297 0.041,0.062 0.09,0.113 0.141,0.162 L 61.293,82.065 37.423,93.844 48.384,62.786 49.1,62.535 c 1.366,1.852 2.288,3.025 2.458,3.242 0.344,0.435 0.869,0.688 1.424,0.688 h 0.004 c 0.558,-0.002 1.082,-0.257 1.425,-0.693 0.262,-0.334 2.299,-2.951 5.013,-6.856 l 2.791,-0.979 -0.412,10.704 z m 3.483,13.666 0.509,-13.341 c 0.162,-0.036 0.324,-0.075 0.488,-0.106 0.543,-0.102 0.898,-0.623 0.797,-1.164 -0.104,-0.543 -0.624,-0.895 -1.168,-0.797 -0.014,0.002 -0.025,0.006 -0.039,0.01 l 0.345,-9.04 16.66,6.784 L 94.287,94.2 65.286,82.307 z"
         inkscape:connector-curvature="0"
         style="fill:#ffffff;fill-opacity:1" />
      <path
         id="path3688"
         d="m 24.644,73.37 c -0.368,-0.41 -1,-0.446 -1.412,-0.08 -0.412,0.367 -0.448,0.997 -0.08,1.41 0.945,1.056 1.952,2.022 2.992,2.874 0.187,0.15 0.41,0.226 0.633,0.226 0.29,0 0.577,-0.124 0.774,-0.364 0.351,-0.428 0.287,-1.057 -0.14,-1.404 -0.96,-0.788 -1.891,-1.68 -2.767,-2.662 z"
         inkscape:connector-curvature="0"
         style="fill:#ffffff;fill-opacity:1" />
      <path
         id="path3690"
         d="m 46.831,78.032 c -1.209,0.532 -2.434,0.997 -3.638,1.385 -0.525,0.17 -0.814,0.731 -0.646,1.257 0.137,0.424 0.529,0.691 0.952,0.691 0.102,0 0.205,-0.016 0.307,-0.049 1.27,-0.407 2.559,-0.898 3.831,-1.459 0.505,-0.222 0.734,-0.811 0.512,-1.314 -0.222,-0.503 -0.811,-0.734 -1.318,-0.511 z"
         inkscape:connector-curvature="0"
         style="fill:#ffffff;fill-opacity:1" />
      <path
         id="path3692"
         d="m 77.242,68.311 c -1.316,-0.569 -2.656,-1.006 -3.982,-1.293 -0.535,-0.117 -1.07,0.225 -1.189,0.764 -0.116,0.537 0.227,1.07 0.767,1.188 1.198,0.26 2.412,0.654 3.608,1.174 0.131,0.057 0.266,0.082 0.397,0.082 0.388,0 0.755,-0.225 0.918,-0.601 0.219,-0.508 -0.013,-1.096 -0.519,-1.314 z"
         inkscape:connector-curvature="0"
         style="fill:#ffffff;fill-opacity:1" />
      <path
         id="path3694"
         d="m 56.164,72.627 c -1.184,0.826 -2.258,1.539 -3.288,2.18 -0.469,0.291 -0.61,0.907 -0.319,1.375 0.189,0.303 0.517,0.471 0.851,0.471 0.181,0 0.362,-0.049 0.528,-0.151 1.06,-0.66 2.164,-1.394 3.375,-2.237 0.453,-0.315 0.562,-0.938 0.246,-1.391 -0.317,-0.454 -0.94,-0.563 -1.393,-0.247 z"
         inkscape:connector-curvature="0"
         style="fill:#ffffff;fill-opacity:1" />
      <path
         id="path3696"
         d="m 82.02,72.227 c -0.34,0.435 -0.265,1.061 0.172,1.4 0.977,0.764 1.961,1.622 2.928,2.559 0.193,0.187 0.443,0.279 0.695,0.279 0.261,0 0.521,-0.102 0.719,-0.304 0.384,-0.396 0.374,-1.027 -0.023,-1.411 -1.016,-0.98 -2.054,-1.889 -3.086,-2.693 -0.437,-0.341 -1.066,-0.265 -1.405,0.17 z"
         inkscape:connector-curvature="0"
         style="fill:#ffffff;fill-opacity:1" />
    </g>
  </g>
</svg>
